<?xml version="1.0" encoding="UTF-8"?>
<!DOCTYPE svg PUBLIC "-//W3C//DTD SVG 1.1//EN" "http://www.w3.org/Graphics/SVG/1.1/DTD/svg11.dtd">
<!-- Creator: CorelDRAW 2020 (64-Bit) -->
<svg xmlns="http://www.w3.org/2000/svg" xml:space="preserve" width="40cm" height="40cm" version="1.1" style="shape-rendering:geometricPrecision; text-rendering:geometricPrecision; image-rendering:optimizeQuality; fill-rule:evenodd; clip-rule:evenodd"
viewBox="0 0 40000 40000"
 xmlns:xlink="http://www.w3.org/1999/xlink"
 xmlns:xodm="http://www.corel.com/coreldraw/odm/2003">
 <defs>
  <style type="text/css">
   <![CDATA[
    .fil0 {fill:#338A60;fill-rule:nonzero}
   ]]>
  </style>
 </defs>
 <g id="Слой_x0020_1">
  <metadata id="CorelCorpID_0Corel-Layer"/>
  <g id="_3104077409072">
   <path class="fil0" d="M7500.15 27608.07l0 3069.72 17028.53 2.05c50.05,-67.16 94.76,-210.52 130.56,-292.23 41.23,-94.03 86.91,-198.12 128.71,-302.86 154.49,-387 355.12,-808.94 515.34,-1208.23 43.1,-107.41 83.99,-196.85 127.9,-302.05 28.43,-68.08 116.16,-247.93 124.73,-312.28l-15608.67 -26.12 -2.27 -9043.33 1000.44 1.85 0.52 -2318.58 -996 -0.08c1.13,-341.58 -31.81,-7975.95 6.38,-8082.31l15664.93 -62.58c-25.93,-220.83 -426.33,-1111.66 -520.17,-1312.35 -32.32,-69.15 -589.99,-1150.1 -653.17,-1175.84l-16879.67 -1.99c-17.45,128.02 -12.21,2475.09 -12.35,2665.89l-12.32 5344.15c-6.63,890.91 7.66,1785.87 -7.38,2676.15 -14.9,882.42 -4.02,1781.69 -6.2,2667.98l-11.94 5344.14c-0.37,187.97 9.94,2561.05 -14.41,2658.56 -0.63,2.56 -1.94,7.06 -3.49,10.34z"/>
   <path class="fil0" d="M20316.86 35452.44l536.29 0c25.31,-10.16 624.25,-48.32 723.08,-60.69 217.88,-27.27 456.74,-62.51 667.47,-108.62 743.12,-162.59 1097.72,-287.59 1762.78,-582.48 354,-156.96 678.39,-358.72 1000.79,-560.5 188.93,-118.24 303.98,-222.06 461.38,-332.69 154.18,-108.35 299.96,-241.84 426.74,-353.64 144.92,-127.82 260.23,-236.65 399.73,-381.28 833.96,-864.62 1362.74,-1755.54 1847.11,-2864.03 932.71,-2134.53 1583.83,-5222.25 1712.34,-7682.55 51.46,-985.37 89.73,-2055.84 -2.15,-3044.2l-2814.41 -5.15c-12.51,140.44 -5.59,301.64 -6.91,441.52 -1.42,147.99 -10.29,292.89 -12.85,444.24 -4.86,287.1 -13.61,588.97 -26.69,875.28 -5.82,127.18 -31.55,268.81 -40.56,403.66 -26.54,396.99 -68.32,911.34 -80.53,1292.38 -5.25,163.81 -209.39,1342.26 -238.24,1565.25 -35.26,272.65 -65.52,536.83 -101.77,801.78 -183.85,1343.52 -491.71,2726.1 -1008.42,3970.31 -23.7,57.08 -48.82,110.32 -70.43,158.88 -111.68,250.87 -244.16,510.93 -378.5,751.9 -971.93,1743.47 -2479.49,2684.77 -4501.44,2741.43 -2582.83,72.38 -2746.23,-1390.9 -4039.12,-1845.27 -172.93,-60.77 -217.82,-48.91 -417.18,-47.67 -890.96,5.55 -1834.65,24.6 -2714,16.09 45.67,171.29 402.23,743.02 515.1,910.95 961.63,1430.78 2362.3,2502 4014.91,3052.32 615.44,204.94 1079.41,306.03 1725.84,387.02 113.42,14.21 610.1,36.81 659.64,55.76z"/>
   <path class="fil0" d="M21072.31 1543.43l-543.96 0c-38.26,15.84 -549.21,35.95 -649.44,46.68 -209.53,22.45 -418.62,40.81 -622.23,78.81 -393.88,73.5 -778.85,148.75 -1147.42,265.82 -712.21,226.18 -1383.31,513.04 -1934.09,893.49 -850.45,587.46 -1548.99,1279.64 -2122.27,2118.2 -127.07,185.84 -450.79,749.25 -469.89,946.35 556.92,20.6 1164.3,4.08 1724.68,-2.74 425.51,-5.18 1281.72,23.22 1548.57,-186.49 83.79,-65.86 144.76,-150.94 208.67,-222.13 239.37,-266.68 395.91,-386.67 710.01,-595.65 1840.32,-1224.38 4162.04,-994.32 5914.29,296.82 94.67,69.75 161.03,122.52 239.64,191.38 66.2,57.99 163.26,137.9 235.86,208.33 628.97,610.07 1048.47,1220.2 1418.86,2053.76 769.63,1732.01 964.87,3882.56 1152.61,5794.31 51,519.33 110.4,1071.99 147.13,1587.98l127.73 1164.92c18.45,125.3 25.79,273.88 54.41,390.56l2734.56 1.43 13.01 -715.33c-65.57,-706.88 -61.26,-1351.07 -148.18,-2088.57 -52.01,-441.33 -101.9,-895.88 -143.47,-1337.5 -42.8,-454.59 -112.38,-866.25 -182.15,-1310.76 -63.93,-407.42 -116.89,-878.24 -207.7,-1272.25 -92.96,-403.35 -171.51,-819.69 -282.2,-1212.36 -109.4,-388.1 -202.23,-771.72 -310.67,-1170.6 -63.82,-234.76 -414.31,-1007.97 -531.2,-1326.32 -119.98,-326.78 -169.14,-438.36 -374.46,-743.22l-295.2 -444.63c-908.62,-1328.23 -2172.58,-2433.94 -3734.43,-2969.52 -601.42,-206.23 -1191.77,-328.3 -1834.15,-390.18 -91.8,-8.84 -668.38,-38.41 -696.92,-50.59z"/>
   <path class="fil0" d="M12237.02 27953.18l2937.58 -0.04c0.83,-114.87 -301.34,-2042.99 -329.91,-2281.59 -93.9,-784.51 -212.04,-1551.06 -295.55,-2332.78 -169.99,-1591.57 -331.4,-3222.25 -368.79,-4860.49 -59.88,-2622.71 -2.52,-4746.67 575.2,-7245.84 87.01,-376.43 402.72,-1819.49 420.61,-2203.77l-2897.26 -0.67c-14.1,17.36 -4.88,3.31 -16.2,25.76l-24.99 93.75c-129.65,683.65 -297.07,1330.34 -401.82,2062.48 -109.85,767.82 -250.34,1532.27 -330.09,2306.08 -40.83,396.1 -84.71,793.13 -124.44,1182.06 -41.99,410.97 -61.98,809.61 -95.17,1225.71 -184.83,2317.32 -97.97,5322.12 144.35,7560.65 163.93,1514.46 432.02,3082.44 806.48,4468.69z"/>
   <path class="fil0" d="M14470.28 19177.56c113.13,23.34 4142.42,6.84 4243.11,6.84l8480.63 0c1416.58,0 2838.17,11.87 4254.11,0.08l-0.51 -2319.68 -17032.11 -0.63 54.77 2313.39z"/>
   <path class="fil0" d="M29201.72 8729.08c283.92,23.09 673.66,4.82 967.24,2.07 323.02,-3.01 646.16,-1.2 969.21,-2.37 329.86,-1.19 635.6,13.45 955.75,12.13 304.72,-1.26 663.87,-18.01 962.3,0.21 20.91,-94.86 9.67,-2407.33 5.21,-2501.82l-4628.37 -11.45c9.47,94.25 597.72,1954.33 670.4,2182.63 30.45,95.66 79.96,223.51 98.26,318.6z"/>
   <path class="fil0" d="M28351.76 30670.16l4724.38 8.64 0.51 -2433.48 -3930.76 -0.36c-42.65,57.39 -169.21,490.27 -203.71,595.8 -69.05,211.16 -592.96,1754 -590.42,1829.4z"/>
  </g>
 </g>
</svg>
