<?xml version="1.0" encoding="UTF-8"?>
<!DOCTYPE svg PUBLIC "-//W3C//DTD SVG 1.1//EN" "http://www.w3.org/Graphics/SVG/1.1/DTD/svg11.dtd">
<!-- Creator: CorelDRAW 2020 (64-Bit) -->
<svg xmlns="http://www.w3.org/2000/svg" xml:space="preserve" width="10cm" height="10cm" version="1.1" style="shape-rendering:geometricPrecision; text-rendering:geometricPrecision; image-rendering:optimizeQuality; fill-rule:evenodd; clip-rule:evenodd"
viewBox="0 0 10000 10000"
 xmlns:xlink="http://www.w3.org/1999/xlink"
 xmlns:xodm="http://www.corel.com/coreldraw/odm/2003">
 <defs>
  <style type="text/css">
   <![CDATA[
    .fil1 {fill:#08A8E7}
    .fil5 {fill:#1E8C48}
    .fil4 {fill:#206FB7}
    .fil2 {fill:#39C2F3}
    .fil3 {fill:#4AA04C}
    .fil0 {fill:#62BA53}
   ]]>
  </style>
 </defs>
 <g id="Слой_x0020_1">
  <metadata id="CorelCorpID_0Corel-Layer"/>
  <g id="_1581102912352">
   <path class="fil0" d="M5113.22 5027.76c10.88,-17.71 9.82,-52.19 24.42,-66.76 15.28,4.54 36.81,60.82 69.56,95.91 77.16,82.66 97.74,82.11 185.5,128.08 190.99,100.04 406.62,99.48 614.38,116.86 179.47,15.01 363.9,16.15 544.66,19.72 185.52,3.69 371.13,2.84 556.85,2.72 643.57,-0.46 1289.88,-26.28 1934.3,-26.74 92.6,-0.07 183.93,5.08 275.98,6.77 -1.91,-5.34 -3.1,-10.29 -5.85,-15.93 -29.9,-61.43 -76.97,-129.43 -118.07,-176.84l-28.06 -35.31c-34.91,-46.28 -134.69,-142.5 -182.65,-188.83l-308.53 -260.88c-5.9,-4.48 -4.64,-4.54 -10.54,-9.03l-128.33 -92.23c-27.89,-24.16 -152.5,-100.45 -191.67,-126.03 -109.14,-71.27 -356.74,-201.91 -464.35,-241.42 -8.41,-3.09 -15.85,-6.73 -26.35,-10.78 -9.65,-3.71 -19.4,-7.98 -28.16,-11.66 -8.95,-3.76 -18.68,-6.63 -26.87,-10.08 -9.78,-4.12 -18.25,-7.68 -28.49,-11.2 -90.34,-31.17 -197.85,-69.73 -288.97,-89.64l-376.04 -67.29c-5.45,-0.85 -11.5,0.29 -16.92,-0.24l-151.42 -13.44c-15.63,0.1 -21.51,-3.22 -34.1,-3.49 -11.29,-0.24 -22.97,0.1 -34.31,0.18 -15.23,0.09 -18.9,-3.54 -34.13,-3.43 -19.01,0.11 -52.86,2.9 -69.88,-1.3 -29.79,-7.38 -104.91,-2.02 -140.19,-2.02 -25.97,0 -42.43,-3.36 -68.39,-3.36l-178.39 0.14c-12.57,-0.27 -18.47,-3.59 -34.09,-3.49 -49.09,0.25 -91.58,-2.22 -139.32,-3.22 -12.47,-0.26 -16.6,-3.62 -31.65,-3.51l-102.6 -6.68c-9.62,-1 -5.02,-2.43 -14.63,-3.38 -5.38,-0.54 -11.73,0.57 -17.12,0.03l-33.21 -4.73c-8.38,-2.04 -23.6,-4.06 -30.48,-5.11 -43.11,-6.55 -86.19,-11.3 -128.64,-21.28 -8.08,-1.9 -22.25,-5.66 -32.37,-6.17 -32.45,3.51 -66.6,9.92 -99.82,14.46 -210.28,28.7 -492.51,26.12 -684.08,-64.75 -240.11,-113.88 -329.64,-291.61 -281.14,-621.4l19.9 -120.71 -42.71 72.5c-27.14,55.19 -38.88,77.84 -62.49,142.47 -14.32,39.18 -25.95,84.14 -36.36,128.02 -10.08,42.51 -17.96,101.88 -22.07,151.02 -3.38,40.45 -3.21,133.45 1.27,169.06 12.97,103.26 7.58,101.02 36.1,219.07 12.29,50.86 40.86,143.82 60.17,189.3l33.32 85.19c17.37,47.9 54.11,131.33 70.06,175.71l58.76 144.24c46.94,106.54 76.32,175.29 125.53,277.47l70.67 127.84c13.56,18.67 29.59,49.03 51.94,65.61l0.07 -0.01z"/>
   <path class="fil1" d="M712.17 4853.63c15.2,40.46 40.04,70.28 62.9,101.73 17.54,24.16 56.73,67 74.55,85.59l183.96 173.59c45.12,41.3 147.31,124.76 192.32,158.72l87.06 68.38c8.38,5.85 14.37,10.52 22.06,16.69l202.67 147.85c15.34,10.54 29.61,20.22 45.58,31.38l402.34 202.41c145.13,77.9 259.52,111.02 412.32,141.68 14.15,2.84 16.57,0.73 29.69,6.18 111.39,46.34 161.25,63.46 282.1,85.63 18.53,3.4 39.91,7.13 59.86,11.71 21.21,4.88 40.41,4.42 61.55,9.42l350.23 38.97c10.58,1.09 23.62,-1.44 34.01,0.24l97.88 6.46c14.88,-0.08 20.38,2.87 31.66,3.49 23.32,1.28 46.34,-1.84 66.57,2.5 19.15,4.11 47.54,-1.39 67.86,0.72 54.69,5.68 82.27,2.09 136.85,3.24 12.48,0.25 16.61,3.61 31.65,3.5l342 3.26c13.92,0.01 16.8,3.57 31.67,3.49 32.37,-0.21 33.53,-2.54 64.11,5.85 27.27,7.51 23.06,6.19 48.26,30.25 10.52,-3.81 21.86,-12.89 34.79,-18.12 12.59,-5.1 26.73,-10.49 40.66,-14.7 83.53,-25.23 192.96,-39.72 278.68,-40.53 166.8,-1.6 305.7,16 448.31,88.58 14.03,7.14 24.59,15.02 35.89,21.44 12.63,7.19 23.3,14.14 34.28,23.62 58.39,50.36 76.99,61.12 126.98,141.12 21.19,33.93 52.61,116.72 67.2,156.26 21.84,59.26 51.39,118.56 55.46,205.76l6.11 4.78c12.42,-10.56 39.16,-62.86 46.93,-79.62l13 -32.51c1.82,-5.02 2.58,-8.64 4.4,-14.1 19.62,-58.44 25.08,-109.52 30.74,-176.06 10.15,-119.1 -27.97,-313.15 -59.44,-421.58l-23.07 -75.76c-11.81,-41.73 -29.73,-80.85 -44.33,-120.41 -6.16,-16.7 -11.71,-30.9 -18.67,-48.23l-232.79 -546.45c-1.52,-6.33 -0.18,-6.14 -3.92,-11.39l-40.11 -75.93 -66.15 -59.85c-8.06,-7.28 -14.24,-12.61 -22.21,-19.79 -8.16,-7.33 -14.32,-12.26 -22.01,-20.24 -35.23,-36.6 -66.82,-59.1 -107.46,-101.12 -108.9,-112.61 -211.26,-178.61 -360.6,-196.32 -120.93,-14.33 -168.22,-1.52 -278.76,0.29 -94.22,1.54 -188.11,9.66 -283.37,10.04 -96.06,0.4 -192.13,0.91 -288.2,0.92 -524.24,0.07 -1053.47,12.51 -1577.73,13.44 -144.85,0.26 -282.01,-4.72 -427.41,-7.42 -93.87,-1.75 -189.49,-6 -283.3,-5.91 -57.28,0.07 -472.3,-42.35 -501.48,59.02 -2.47,8.57 -0.32,9.84 -4.08,17.84l-0.05 0z"/>
   <path class="fil2" d="M712.17 4853.63c3.76,-8 1.62,-9.27 4.09,-17.84 29.18,-101.37 444.19,-58.95 501.47,-59.02 93.82,-0.09 189.44,4.16 283.3,5.91 145.39,2.7 282.56,7.69 427.41,7.42 524.26,-0.93 1053.5,-13.37 1577.74,-13.44 96.06,-0.01 192.13,-0.52 288.19,-0.92 95.26,-0.38 189.14,-8.5 283.37,-10.04 110.54,-1.81 157.85,-14.63 278.76,-0.29 149.36,17.71 251.7,83.71 360.6,196.32 40.64,42 72.23,64.52 107.46,101.12 7.68,7.98 13.86,12.91 22.01,20.24 7.98,7.18 14.15,12.51 22.22,19.79l66.15 59.85c-1.95,-11.34 -3.82,-12.02 -7.28,-20.13l-69.42 -163.18c-3.51,-7.9 -6.48,-12.19 -9.67,-20.29l-14.6 -43.74c-5.64,-15.52 -9.78,-27.06 -15.42,-42.59l-24.43 -63.83c-30.56,-84.23 -75.76,-186.87 -112.73,-264.82 -3.7,-7.81 -5.25,-12.68 -9.23,-20.9l-46.9 -96.7c-25.65,-52.93 -58.39,-116.99 -89.06,-166.41l-21.98 -36.96c-4.71,-7.66 -7.13,-9.28 -11.57,-17.66 -3.98,-7.52 -5.39,-8.98 -10.41,-15.9l-43.9 -67.27c-4.67,-6.36 -7.58,-10.38 -12.21,-16.79l-77.97 -90.94c-27.47,-28.58 -59.58,-48.48 -90.8,-69.94 -11.25,-7.73 -18.39,-15.71 -29.28,-23.56 -14.64,-10.57 -15.6,-12.68 -26.62,-27.22 -21.53,-28.4 -60.05,-62.85 -87.04,-75.09 -55.6,-25.22 -97.4,-37.05 -156.57,-43.31 -96.18,-10.17 -93.62,-43.59 -251.62,-43.59 -23.12,0 -71.96,-3.57 -91.82,1.35l-247.75 15.31c-11.97,0.26 -11,3.02 -21.8,3.62l-66.22 2.99c-22.45,3.61 -158.56,1.77 -188.12,-2.96 -10.86,-1.73 -12.99,2.3 -21.72,3.23 -45.41,4.74 -95.72,-1.12 -141.76,-0.15l-161.19 3.37c-10.8,0.6 -9.83,3.36 -21.8,3.61 -46.05,0.97 -96.33,-4.87 -141.76,-0.14l-136.76 3.38c-19.05,-0.01 -30.04,3.51 -46.38,3.4 -30.93,-0.19 -61.89,-0.05 -92.84,-0.05 -33.92,0 -58.88,3.36 -92.8,3.36 -202.28,0 -401.02,11.56 -603.27,10.07 -17.61,-0.13 -27.08,3.39 -46.39,3.38 -31.76,-0.05 -63.5,0 -95.25,0 -33.42,0 -58.05,3.36 -90.37,3.36 -31.75,0 -63.51,0.05 -95.25,0 -18.45,-0.03 -27.85,3.51 -43.93,3.4 -14.12,-0.1 -32.84,-1.48 -46.44,-0.05 -9.13,0.95 -7.97,3.27 -19.43,3.51l-49.03 -0.26c-10.8,0.6 -9.82,3.37 -21.79,3.62 -15.44,0.32 -31.17,-0.59 -46.6,-0.27l-43.87 3.49c-33.04,0 -58.52,3.54 -92.83,3.32l-295.58 13.34c-10.8,0.61 -9.82,3.37 -21.8,3.62 -16.05,0.33 -33.14,-1.13 -49.03,-0.25l-134.25 6.82c-32.84,-0.24 -95.88,6.86 -136.76,6.73l-92.28 4.09c-13.6,2.92 -27.46,2.64 -44.49,2.64 -19.05,-0.02 -30.03,3.51 -46.37,3.39 -34.32,-0.22 -59.79,3.32 -92.84,3.32 0.29,17.68 7.57,30.88 12.21,43.67l33.22 75.24c30.37,62.65 62.74,113.1 94.76,171.97l30.18 49.19c5.14,7.51 4.97,9.62 9.72,16.86l20.78 31.89c8.36,11.29 12.15,20.11 20.81,31.85l62.19 95.84c7.55,10.88 14.21,19.42 22.04,30.16 3.87,5.33 7.58,9.57 10.97,15.14l31.78 46.99c32.71,44.99 64.8,93.66 100.11,134.39 12.2,14.08 20.78,30.81 33.84,44.15l46.75 56.62c4.74,5.51 5.92,8.98 11.38,14.59l24.11 27.27c14.18,16.27 39.75,35.42 50.93,50.9l22.12 30.04c4.64,5 6.67,9.66 11.31,14.66 8.83,9.54 14.63,21.61 27.31,22.76l-0.01 -0.05z"/>
   <path class="fil3" d="M5113.22 5027.76c2.71,17.52 4.66,32.94 7.81,50.38 8.44,46.79 24.01,94.01 36.48,137.92 14.15,49.8 34.58,95.31 52.61,142.62 3.56,9.34 4.74,13.28 8.59,21.77l145.66 300.16c15.81,28.93 31.67,60.13 49.8,86.01 18.54,26.42 33.35,56.02 52.57,82.22l21.98 33.61c16.15,21.93 30.42,41.69 46.41,63.81l34.16 43.72c5.68,7.03 7.6,6.98 13.48,15.04 5.74,7.86 6.21,7.36 12.03,13.68 53.44,58.06 86.86,92.12 151.8,137.2 19.99,13.89 42.7,25.01 64.81,35.14 22.74,10.42 43.76,19.55 69.68,28.45 50.22,17.27 100.57,29.75 153.47,40.85 27,5.65 55,8.22 80.54,13.5 24.91,5.16 60.06,3.67 83.49,9.48 26.01,6.44 60.04,0.65 86.76,4.95 25.99,4.19 62.31,-1.51 89.09,5.12 25.83,6.4 144.22,1.16 179.76,1.35 17.74,0.1 24.44,-3.51 41.5,-3.38 15.46,0.11 30.95,0.02 46.42,0.02 32.34,0 56.93,-3.41 90.37,-3.37 17.52,0.03 26.99,-3.42 41.46,-3.44 13.29,-0.03 33.87,1.84 46.28,-0.16 13.79,-2.22 24.44,-3.13 41.7,-3.11 38.79,0.02 87.15,-6.86 131.88,-6.71 18.58,0.05 26.61,-3.51 43.95,-3.38l134.35 -3.34c17.05,0.13 23.76,-3.47 41.5,-3.38 134.05,0.72 268.87,-10.07 402.98,-10.07l179.75 -4.72c53.29,-13.2 125.73,9.67 178.29,-3.36 28.67,-7.11 144,-2.01 181.71,-2.01 32.62,0 56.66,-3.35 87.92,-3.35l727.81 0c27.7,0 63.7,-2.8 90.38,-0.02l107.44 0c41.21,-4.28 201.48,1.21 251.66,0.14l109.82 -3.47c9.21,-0.95 9.67,-3.44 21.9,-3.46 15.49,-0.03 31.02,0.03 46.5,0.13l212.99 -16.11c7.05,-1.51 14.38,-0.48 21.54,-0.6l85.35 -10.26c12.26,-0.27 12.7,-2.25 22.02,-3.31 0,-28.87 -11.83,-54.43 -22.43,-76.63 -13.21,-27.65 -26.07,-55.43 -41.65,-80.43 -4.04,-6.46 -4.56,-8.58 -8.59,-15.06 -6.56,-10.53 -11.03,-19.18 -17.24,-30.04 -14.44,-25.26 -32.81,-47.18 -47.29,-72.66l-27.4 -42.93c-5.28,-9.77 -12.8,-18.69 -19.16,-27.39l-19.52 -30.26c-14.06,-19.2 -26.3,-36.15 -40.35,-55.35l-39.06 -57.13c-7.89,-10.76 -10.79,-18.42 -18.29,-28.59 -27.87,-37.85 -63.1,-99.55 -95.31,-144.35l-121.45 -162.15 -59.57 -55.78c-13.29,-10.63 -28.85,-20.39 -45.47,-20.99 -92.06,-1.7 -183.38,-6.84 -275.97,-6.78 -644.43,0.46 -1290.75,26.28 -1934.31,26.74 -185.71,0.13 -371.33,0.97 -556.85,-2.71 -180.76,-3.59 -365.19,-4.72 -544.66,-19.73 -207.76,-17.38 -423.39,-16.8 -614.38,-116.86 -87.76,-45.97 -108.34,-45.43 -185.5,-128.08 -32.75,-35.08 -54.29,-91.37 -69.55,-95.91 -14.61,14.57 -13.54,49.05 -24.43,66.76l-0.02 0.05z"/>
   <path class="fil4" d="M4133.86 6196.54c-31.26,92.85 -64.39,214.14 -92.81,309.85 -51.08,172 -113.18,451.25 -129.53,638.07l-9.68 124.4c-0.66,12.78 -2.12,8.71 -2.54,23.38 -1.75,60.79 -4.2,158.42 -2.44,218.58 0.42,14.59 1.84,10.6 2.53,23.37l22.57 271.27c7.34,59.58 18.72,120.08 29.2,178.17 15.46,85.71 36.56,165.58 54.69,253.95 19.07,92.93 33.45,160.27 56.2,251.88l22.09 77.12c29.29,81.17 27.15,90.04 72.08,172.94 7,12.92 12.97,19.11 19.14,30.77 12.83,24.25 57.2,68.02 78.9,82.95 13.28,9.14 62.24,35.53 75.76,29.18 69.25,-32.5 144.01,-146.29 188.72,-231.04 3.17,-5.98 4.97,-10.66 7.9,-16.01 21.53,-39.24 36.71,-77.49 55.14,-118.97 25.3,-56.95 46.37,-124.39 66.56,-183.89 10.97,-32.32 3.45,-16.69 18.77,-54.81l85.44 -208.3c3.46,-9.06 4.71,-9.95 8.16,-19.01 13.4,-35.08 32.01,-69.65 45.56,-101.92l45.12 -102.53c5.32,-11.83 9.32,-21.74 14.65,-33.6l87.91 -208.26c3.21,-7.03 3.94,-9.62 6.99,-17.27l148.99 -372.84c4.76,-13.11 8.54,-23.79 12.99,-35.86l139.25 -413.38 -6.11 -4.77c-4.07,-87.2 -33.62,-146.51 -55.46,-205.76 -14.58,-39.56 -46.01,-122.33 -67.2,-156.26 -49.99,-80 -68.59,-90.76 -126.98,-141.13 -10.98,-9.47 -21.65,-16.42 -34.28,-23.61 -11.29,-6.43 -21.85,-14.3 -35.89,-21.44 -142.61,-72.6 -281.51,-90.18 -448.31,-88.58 -85.73,0.83 -195.15,15.3 -278.68,40.53 -13.92,4.21 -28.06,9.6 -40.66,14.7 -12.93,5.23 -24.27,14.31 -34.79,18.12l0.05 0.01z"/>
   <path class="fil5" d="M4769.02 3080.23l-19.89 120.72c-48.51,329.79 41.03,507.52 281.14,621.4 191.57,90.86 473.8,93.45 684.08,64.74 33.21,-4.53 67.36,-10.95 99.82,-14.45l72.29 -212.65c7.74,-26.15 14.6,-47.52 22.21,-73.57 42.67,-146.18 84.52,-320.88 107.62,-480.11 16.44,-113.36 22.75,-178.8 32.15,-291.68l2.61 -77.01c1.17,-21.2 2.48,-6.04 2.46,-47l0 -161.23c0,-80.76 -9.54,-204.36 -19.27,-285.88l-23.69 -175.67c-13.2,-78.41 -31.12,-172.32 -49.53,-247.62 -29.01,-118.57 -77.74,-293.58 -119.16,-407.14 -5.17,-14.15 -8.99,-21.1 -13.88,-34.65 -24.16,-66.77 -59.1,-130.7 -104.63,-171.85 -12.2,-11.01 -37.03,-26.71 -55.63,-27.61 -44.06,-2.18 -68.42,11.28 -102.63,40.48 -4.88,4.16 -5.51,6.08 -11.24,11.41 -33.42,31.07 -87.18,112.97 -110.94,159.8l-144.03 325.92 -130.29 344.8c-4.4,11.51 -9.52,21.22 -13.8,31.4l-155.87 360.03c-32.38,71.95 -146.7,353.59 -162.46,404.69l-57.54 182.89c-3.11,12.98 -6.32,28.66 -9.9,39.88l0 -0.04z"/>
   <polygon class="fil5" points="6407.64,7097.54 6410.08,7097.54 6408.05,7093.62 "/>
  </g>
 </g>
</svg>
