<?xml version="1.0" encoding="UTF-8"?>
<!DOCTYPE svg PUBLIC "-//W3C//DTD SVG 1.1//EN" "http://www.w3.org/Graphics/SVG/1.1/DTD/svg11.dtd">
<!-- Creator: CorelDRAW 2020 (64-Bit) -->
<svg xmlns="http://www.w3.org/2000/svg" xml:space="preserve" width="9cm" height="5cm" version="1.1" style="shape-rendering:geometricPrecision; text-rendering:geometricPrecision; image-rendering:optimizeQuality; fill-rule:evenodd; clip-rule:evenodd"
viewBox="0 0 9000 5000"
 xmlns:xlink="http://www.w3.org/1999/xlink"
 xmlns:xodm="http://www.corel.com/coreldraw/odm/2003">
 <defs>
  <style type="text/css">
   <![CDATA[
    .fil1 {fill:#08A8E7}
    .fil5 {fill:#1E8C48}
    .fil4 {fill:#206FB7}
    .fil2 {fill:#39C2F3}
    .fil3 {fill:#4AA04C}
    .fil0 {fill:#62BA53}
   ]]>
  </style>
 </defs>
 <g id="Слой_x0020_1">
  <metadata id="CorelCorpID_0Corel-Layer"/>
  <g id="_1581102912352">
   <path class="fil0" d="M4570.33 2519.15c9.43,-11.16 8.51,-32.89 21.17,-42.07 13.24,2.86 31.9,38.33 60.28,60.44 66.87,52.09 84.71,51.74 160.77,80.71 165.52,63.04 352.4,62.69 532.46,73.64 155.54,9.46 315.38,10.18 472.04,12.43 160.78,2.32 321.65,1.79 482.6,1.71 557.76,-0.29 1117.9,-16.56 1676.4,-16.85 80.25,-0.04 159.4,3.2 239.18,4.27 -1.66,-3.37 -2.69,-6.49 -5.07,-10.04 -25.91,-38.71 -66.71,-81.56 -102.33,-111.44l-24.32 -22.25c-30.25,-29.16 -116.73,-89.8 -158.29,-118.99l-267.4 -164.4c-5.11,-2.82 -4.02,-2.86 -9.13,-5.69l-111.22 -58.12c-24.17,-15.22 -132.17,-63.3 -166.11,-79.42 -94.59,-44.91 -309.18,-127.23 -402.44,-152.13 -7.29,-1.95 -13.74,-4.24 -22.84,-6.79 -8.36,-2.34 -16.81,-5.03 -24.4,-7.35 -7.76,-2.37 -16.19,-4.18 -23.29,-6.35 -8.48,-2.6 -15.82,-4.84 -24.69,-7.06 -78.3,-19.64 -171.47,-43.94 -250.44,-56.49l-325.9 -42.4c-4.73,-0.54 -9.97,0.18 -14.67,-0.15l-131.23 -8.47c-13.54,0.06 -18.64,-2.03 -29.55,-2.2 -9.79,-0.15 -19.91,0.06 -29.74,0.11 -13.2,0.06 -16.38,-2.23 -29.58,-2.16 -16.47,0.07 -45.81,1.83 -60.56,-0.82 -25.82,-4.65 -90.92,-1.27 -121.5,-1.27 -22.5,0 -36.77,-2.12 -59.27,-2.12l-154.6 0.09c-10.9,-0.17 -16.01,-2.26 -29.55,-2.2 -42.54,0.16 -79.37,-1.4 -120.74,-2.03 -10.81,-0.16 -14.39,-2.28 -27.43,-2.21l-88.92 -4.21c-8.34,-0.63 -4.35,-1.53 -12.68,-2.13 -4.66,-0.34 -10.17,0.36 -14.84,0.02l-28.78 -2.98c-7.26,-1.29 -20.45,-2.56 -26.42,-3.22 -37.36,-4.13 -74.69,-7.12 -111.48,-13.41 -7.01,-1.2 -19.29,-3.57 -28.06,-3.89 -28.12,2.21 -57.72,6.25 -86.51,9.11 -182.24,18.09 -426.84,16.46 -592.87,-40.8 -208.09,-71.76 -285.69,-183.76 -243.65,-391.58l17.24 -76.07 -37.01 45.69c-23.52,34.78 -33.7,49.05 -54.16,89.78 -12.41,24.69 -22.49,53.02 -31.51,80.67 -8.74,26.79 -15.57,64.2 -19.13,95.17 -2.93,25.49 -2.78,84.09 1.1,106.53 11.24,65.07 6.57,63.66 31.29,138.05 10.65,32.05 35.41,90.63 52.15,119.29l28.87 53.68c15.06,30.19 46.9,82.76 60.72,110.73l50.93 90.89c40.68,67.14 66.14,110.46 108.79,174.85l61.25 80.56c11.75,11.77 25.64,30.9 45.01,41.35l0.06 -0.01z"/>
   <path class="fil1" d="M756.09 2409.42c13.17,25.5 34.7,44.29 54.51,64.11 15.2,15.22 49.17,42.22 64.61,53.93l159.43 109.39c39.11,26.03 127.67,78.62 166.68,100.02l75.45 43.09c7.27,3.69 12.46,6.63 19.12,10.52l175.65 93.17c13.29,6.64 25.66,12.74 39.5,19.77l348.7 127.55c125.78,49.09 224.91,69.96 357.34,89.28 12.26,1.79 14.36,0.46 25.73,3.9 96.54,29.2 139.75,39.99 244.49,53.96 16.06,2.14 34.59,4.49 51.88,7.38 18.38,3.07 35.02,2.78 53.34,5.93l303.53 24.56c9.17,0.69 20.47,-0.91 29.48,0.15l84.83 4.07c12.89,-0.05 17.66,1.81 27.44,2.2 20.21,0.81 40.16,-1.16 57.69,1.58 16.6,2.59 41.2,-0.88 58.81,0.45 47.4,3.58 71.3,1.32 118.61,2.04 10.81,0.16 14.39,2.28 27.43,2.21l296.4 2.05c12.06,0.01 14.56,2.25 27.44,2.2 28.06,-0.13 29.06,-1.6 55.57,3.69 23.63,4.73 19.98,3.9 41.82,19.06 9.12,-2.4 18.95,-8.12 30.15,-11.42 10.91,-3.21 23.17,-6.61 35.24,-9.26 72.39,-15.9 167.23,-25.03 241.52,-25.54 144.56,-1.01 264.94,10.08 388.54,55.82 12.16,4.5 21.31,9.46 31.1,13.51 10.95,4.53 20.2,8.91 29.71,14.88 50.61,31.74 66.73,38.52 110.05,88.93 18.37,21.38 45.6,73.55 58.24,98.47 18.93,37.34 44.54,74.71 48.07,129.66l5.29 3.01c10.77,-6.65 33.94,-39.61 40.68,-50.17l11.26 -20.49c1.58,-3.16 2.24,-5.44 3.82,-8.88 17,-36.83 21.73,-69.02 26.64,-110.95 8.79,-75.05 -24.24,-197.33 -51.52,-265.66l-19.99 -47.74c-10.24,-26.3 -25.77,-50.95 -38.42,-75.88 -5.34,-10.52 -10.15,-19.47 -16.18,-30.39l-201.75 -344.35c-1.32,-3.99 -0.16,-3.87 -3.4,-7.18l-34.76 -47.85 -57.33 -37.71c-6.99,-4.59 -12.34,-7.95 -19.25,-12.47 -7.07,-4.62 -12.41,-7.73 -19.08,-12.76 -30.53,-23.06 -57.91,-37.24 -93.13,-63.72 -94.38,-70.96 -183.09,-112.55 -312.52,-123.71 -104.8,-9.03 -145.79,-0.96 -241.59,0.18 -81.66,0.97 -163.03,6.09 -245.59,6.33 -83.25,0.25 -166.51,0.57 -249.77,0.58 -454.34,0.04 -913.01,7.88 -1367.37,8.47 -125.53,0.16 -244.41,-2.98 -370.42,-4.68 -81.35,-1.1 -164.22,-3.78 -245.53,-3.72 -49.64,0.04 -409.32,-26.69 -434.61,37.19 -2.14,5.4 -0.28,6.2 -3.54,11.24l-0.04 0z"/>
   <path class="fil2" d="M756.09 2409.42c3.26,-5.04 1.4,-5.84 3.54,-11.24 25.29,-63.88 384.97,-37.15 434.61,-37.19 81.31,-0.06 164.18,2.62 245.53,3.72 126,1.7 244.88,4.85 370.42,4.68 454.36,-0.59 913.03,-8.43 1367.37,-8.47 83.26,-0.01 166.52,-0.33 249.77,-0.58 82.56,-0.24 163.92,-5.36 245.59,-6.33 95.8,-1.14 136.8,-9.22 241.59,-0.18 129.44,11.16 218.14,52.75 312.52,123.71 35.22,26.47 62.6,40.66 93.13,63.72 6.66,5.03 12.01,8.14 19.08,12.76 6.91,4.52 12.26,7.88 19.25,12.47l57.33 37.71c-1.69,-7.14 -3.31,-7.57 -6.31,-12.68l-60.16 -102.83c-3.04,-4.98 -5.62,-7.68 -8.38,-12.79l-12.65 -27.56c-4.89,-9.78 -8.48,-17.05 -13.37,-26.84l-21.17 -40.22c-26.49,-53.08 -65.66,-117.76 -97.7,-166.88 -3.21,-4.92 -4.55,-7.99 -8,-13.17l-40.65 -60.94c-22.23,-33.35 -50.6,-73.72 -77.18,-104.86l-19.05 -23.29c-4.08,-4.83 -6.18,-5.85 -10.03,-11.13 -3.45,-4.74 -4.67,-5.66 -9.02,-10.02l-38.05 -42.39c-4.04,-4.01 -6.57,-6.54 -10.58,-10.58l-67.57 -57.31c-23.81,-18.01 -51.64,-30.55 -78.7,-44.07 -9.75,-4.87 -15.93,-9.9 -25.37,-14.85 -12.69,-6.66 -13.52,-7.99 -23.07,-17.15 -18.66,-17.9 -52.05,-39.61 -75.44,-47.32 -48.18,-15.89 -84.41,-23.35 -135.69,-27.29 -83.36,-6.41 -81.14,-27.47 -218.07,-27.47 -20.04,0 -62.37,-2.25 -79.58,0.85l-214.72 9.65c-10.37,0.16 -9.53,1.9 -18.89,2.28l-57.39 1.88c-19.46,2.28 -137.42,1.12 -163.04,-1.86 -9.41,-1.09 -11.26,1.45 -18.82,2.03 -39.36,2.99 -82.96,-0.7 -122.86,-0.09l-139.7 2.12c-9.36,0.38 -8.52,2.12 -18.89,2.28 -39.91,0.61 -83.49,-3.07 -122.86,-0.09l-118.53 2.13c-16.51,-0.01 -26.03,2.21 -40.19,2.14 -26.81,-0.12 -53.64,-0.03 -80.46,-0.03 -29.4,0 -51.03,2.12 -80.43,2.12 -175.31,0 -347.55,7.28 -522.83,6.34 -15.27,-0.08 -23.47,2.14 -40.21,2.13 -27.52,-0.03 -55.03,0 -82.55,0 -28.96,0 -50.31,2.12 -78.32,2.12 -27.52,0 -55.04,0.03 -82.55,0 -15.99,-0.02 -24.14,2.21 -38.07,2.14 -12.24,-0.06 -28.46,-0.93 -40.25,-0.03 -7.91,0.6 -6.91,2.06 -16.84,2.21l-42.49 -0.16c-9.36,0.38 -8.51,2.12 -18.89,2.28 -13.38,0.2 -27.01,-0.37 -40.38,-0.17l-38.02 2.2c-28.64,0 -50.72,2.23 -80.46,2.09l-256.17 8.41c-9.36,0.38 -8.51,2.12 -18.89,2.28 -13.91,0.21 -28.72,-0.71 -42.49,-0.16l-116.35 4.3c-28.46,-0.15 -83.1,4.32 -118.53,4.24l-79.97 2.58c-11.79,1.84 -23.8,1.66 -38.56,1.66 -16.51,-0.01 -26.03,2.21 -40.19,2.14 -29.74,-0.14 -51.82,2.09 -80.46,2.09 0.25,11.14 6.56,19.46 10.58,27.52l28.79 47.41c26.32,39.48 54.38,71.27 82.13,108.37l26.15 31c4.46,4.73 4.31,6.06 8.43,10.62l18.01 20.1c7.24,7.11 10.53,12.67 18.03,20.07l53.9 60.39c6.54,6.86 12.32,12.24 19.1,19.01 3.36,3.36 6.57,6.03 9.51,9.54l27.54 29.61c28.35,28.35 56.16,59.02 86.76,84.69 10.58,8.87 18.01,19.41 29.33,27.82l40.52 35.68c4.11,3.47 5.13,5.66 9.86,9.19l20.9 17.19c12.29,10.25 34.45,22.32 44.14,32.07l19.17 18.93c4.02,3.15 5.78,6.09 9.8,9.24 7.65,6.01 12.68,13.62 23.67,14.34l-0.01 -0.03z"/>
   <path class="fil3" d="M4570.33 2519.15c2.35,11.04 4.04,20.76 6.77,31.75 7.32,29.48 20.81,59.24 31.62,86.91 12.26,31.38 29.97,60.06 45.59,89.87 3.09,5.89 4.11,8.37 7.45,13.72l126.24 189.15c13.7,18.23 27.44,37.89 43.16,54.2 16.06,16.65 28.9,35.3 45.56,51.81l19.05 21.18c13.99,13.82 26.36,26.27 40.22,40.21l29.6 27.55c4.93,4.43 6.59,4.4 11.69,9.48 4.97,4.95 5.38,4.64 10.42,8.62 46.32,36.59 75.28,58.05 131.56,86.46 17.33,8.75 37.01,15.76 56.17,22.14 19.71,6.57 37.93,12.32 60.39,17.93 43.52,10.88 87.16,18.75 133.01,25.74 23.4,3.56 47.66,5.18 69.8,8.51 21.59,3.25 52.05,2.31 72.36,5.97 22.54,4.06 52.03,0.41 75.19,3.12 22.52,2.64 54,-0.95 77.21,3.23 22.39,4.03 124.99,0.73 155.79,0.85 15.38,0.06 21.18,-2.21 35.97,-2.13 13.4,0.07 26.82,0.01 40.23,0.01 28.03,0 49.34,-2.15 78.32,-2.12 15.18,0.02 23.39,-2.16 35.93,-2.17 11.52,-0.02 29.36,1.16 40.11,-0.1 11.95,-1.4 21.18,-1.97 36.14,-1.96 33.62,0.01 75.53,-4.32 114.3,-4.23 16.1,0.03 23.06,-2.21 38.09,-2.13l116.43 -2.1c14.78,0.08 20.6,-2.19 35.97,-2.13 116.18,0.45 233.02,-6.35 349.25,-6.35l155.78 -2.97c46.19,-8.32 108.97,6.09 154.52,-2.12 24.85,-4.48 124.8,-1.27 157.48,-1.27 28.27,0 49.11,-2.11 76.2,-2.11l630.77 0c24.01,0 55.21,-1.76 78.33,-0.01l93.11 0c35.72,-2.7 174.62,0.76 218.11,0.09l95.18 -2.19c7.98,-0.6 8.38,-2.17 18.98,-2.18 13.42,-0.02 26.88,0.02 40.3,0.08l184.59 -10.15c6.11,-0.95 12.46,-0.3 18.67,-0.38l73.97 -6.46c10.62,-0.17 11,-1.42 19.08,-2.09 0,-18.19 -10.25,-34.3 -19.44,-48.29 -11.45,-17.42 -22.59,-34.93 -36.1,-50.68 -3.5,-4.07 -3.95,-5.41 -7.44,-9.49 -5.69,-6.64 -9.56,-12.09 -14.94,-18.93 -12.52,-15.92 -28.44,-29.73 -40.99,-45.79l-23.74 -27.05c-4.58,-6.16 -11.1,-11.78 -16.61,-17.26l-16.92 -19.07c-12.18,-12.1 -22.79,-22.78 -34.97,-34.88l-33.85 -36c-6.84,-6.78 -9.35,-11.61 -15.85,-18.02 -24.15,-23.85 -54.69,-62.73 -82.6,-90.96l-105.26 -102.18 -51.63 -35.15c-11.51,-6.7 -25,-12.85 -39.4,-13.23 -79.79,-1.07 -158.93,-4.31 -239.18,-4.27 -558.5,0.29 -1118.65,16.56 -1676.4,16.85 -160.95,0.08 -321.82,0.61 -482.6,-1.71 -156.66,-2.26 -316.5,-2.97 -472.04,-12.43 -180.06,-10.95 -366.94,-10.59 -532.46,-73.64 -76.06,-28.97 -93.9,-28.63 -160.77,-80.71 -28.38,-22.11 -47.05,-57.58 -60.28,-60.44 -12.66,9.18 -11.73,30.91 -21.17,42.07l-0.02 0.03z"/>
   <path class="fil4" d="M3721.55 3255.67c-27.09,58.51 -55.8,134.94 -80.43,195.25 -44.27,108.39 -98.09,284.36 -112.26,402.09l-8.39 78.39c-0.57,8.05 -1.84,5.49 -2.2,14.73 -1.52,38.31 -3.64,99.83 -2.12,137.74 0.37,9.2 1.6,6.68 2.2,14.73l19.56 170.94c6.36,37.55 16.22,75.67 25.3,112.28 13.4,54.01 31.69,104.34 47.4,160.03 16.53,58.56 28.99,100.99 48.71,158.72l19.14 48.6c25.39,51.15 23.53,56.74 62.47,108.98 6.07,8.14 11.24,12.04 16.59,19.39 11.12,15.28 49.57,42.86 68.38,52.27 11.51,5.76 53.94,22.39 65.66,18.39 60.02,-20.48 124.81,-92.19 163.56,-145.59 2.74,-3.77 4.3,-6.72 6.84,-10.09 18.66,-24.73 31.82,-48.83 47.79,-74.97 21.93,-35.89 40.19,-78.39 57.69,-115.88 9.5,-20.37 2.99,-10.52 16.26,-34.54l74.05 -131.26c3,-5.71 4.08,-6.27 7.07,-11.98 11.62,-22.11 27.75,-43.89 39.49,-64.23l39.1 -64.61c4.61,-7.45 8.08,-13.7 12.7,-21.17l76.19 -131.24c2.78,-4.43 3.41,-6.06 6.06,-10.88l129.12 -234.95c4.13,-8.26 7.4,-14.99 11.26,-22.6l120.68 -260.49 -5.29 -3.01c-3.53,-54.95 -29.14,-92.32 -48.07,-129.66 -12.63,-24.93 -39.87,-77.09 -58.24,-98.47 -43.32,-50.41 -59.44,-57.19 -110.05,-88.93 -9.51,-5.97 -18.76,-10.35 -29.71,-14.88 -9.78,-4.05 -18.93,-9.01 -31.1,-13.51 -123.6,-45.75 -243.98,-56.83 -388.54,-55.82 -74.3,0.52 -169.13,9.64 -241.52,25.54 -12.06,2.65 -24.32,6.05 -35.24,9.26 -11.2,3.3 -21.03,9.02 -30.15,11.42l0.04 0.01z"/>
   <path class="fil5" d="M4272.03 1291.9l-17.24 76.07c-42.04,207.82 35.56,319.82 243.65,391.58 166.03,57.26 410.63,58.89 592.87,40.8 28.78,-2.86 58.38,-6.9 86.51,-9.11l62.65 -134c6.71,-16.48 12.66,-29.95 19.25,-46.36 36.98,-92.12 73.25,-202.21 93.27,-302.55 14.25,-71.43 19.72,-112.67 27.87,-183.8l2.26 -48.53c1.01,-13.36 2.15,-3.81 2.13,-29.62l0 -101.6c0,-50.89 -8.27,-128.78 -16.7,-180.15l-20.53 -110.7c-11.44,-49.41 -26.97,-108.59 -42.93,-156.04 -25.14,-74.72 -67.37,-185 -103.27,-256.56 -4.48,-8.92 -7.79,-13.3 -12.03,-21.84 -20.94,-42.07 -51.22,-82.36 -90.68,-108.29 -10.57,-6.94 -32.09,-16.83 -48.21,-17.4 -38.19,-1.37 -59.3,7.11 -88.95,25.51 -4.23,2.62 -4.77,3.83 -9.74,7.19 -28.96,19.58 -75.55,71.19 -96.15,100.7l-124.82 205.38 -112.92 217.28c-3.81,7.25 -8.25,13.37 -11.96,19.79l-135.09 226.87c-28.06,45.34 -127.14,222.82 -140.8,255.02l-49.86 115.25c-2.7,8.18 -5.48,18.06 -8.58,25.13l0 -0.02z"/>
   <polygon class="fil5" points="5692.16,3823.44 5694.28,3823.44 5692.52,3820.97 "/>
  </g>
 </g>
</svg>
