<?xml version="1.0" encoding="UTF-8"?>
<!DOCTYPE svg PUBLIC "-//W3C//DTD SVG 1.1//EN" "http://www.w3.org/Graphics/SVG/1.1/DTD/svg11.dtd">
<!-- Creator: CorelDRAW 2020 (64-Bit) -->
<svg xmlns="http://www.w3.org/2000/svg" xml:space="preserve" width="35cm" height="20cm" version="1.1" style="shape-rendering:geometricPrecision; text-rendering:geometricPrecision; image-rendering:optimizeQuality; fill-rule:evenodd; clip-rule:evenodd"
viewBox="0 0 35000 20000"
 xmlns:xlink="http://www.w3.org/1999/xlink"
 xmlns:xodm="http://www.corel.com/coreldraw/odm/2003">
 <defs>
  <style type="text/css">
   <![CDATA[
    .fil1 {fill:#08A8E7}
    .fil7 {fill:#08AAE6}
    .fil8 {fill:#08AAE8}
    .fil9 {fill:#1D8C47}
    .fil6 {fill:#1D8D47}
    .fil5 {fill:#1E8C48}
    .fil4 {fill:#206FB7}
    .fil2 {fill:#39C2F3}
    .fil3 {fill:#4AA04C}
    .fil0 {fill:#62BA53}
   ]]>
  </style>
 </defs>
 <g id="Слой_x0020_1">
  <metadata id="CorelCorpID_0Corel-Layer"/>
  <g id="_1616959663264">
   <path class="fil0" d="M17969.32 10120.22c36.81,-43.54 33.19,-128.34 82.6,-164.15 51.65,11.16 124.48,149.56 235.24,235.83 260.94,203.24 330.53,201.89 627.33,314.93 645.88,246.01 1375.1,244.61 2077.69,287.34 606.91,36.91 1230.62,39.71 1841.92,48.51 627.39,9.06 1255.1,6.98 1883.13,6.66 2176.4,-1.14 4362.11,-64.63 6541.42,-65.75 313.14,-0.16 621.97,12.46 933.31,16.66 -6.46,-13.16 -10.52,-25.33 -19.78,-39.19 -101.1,-151.04 -260.32,-318.27 -399.31,-434.84l-94.89 -86.81c-118.04,-113.78 -455.48,-350.4 -617.66,-464.32l-1043.4 -641.51c-19.94,-11.01 -15.7,-11.14 -35.64,-22.18l-433.98 -226.78c-94.3,-59.38 -515.75,-247.02 -648.17,-309.91 -369.08,-175.26 -1206.45,-496.45 -1570.34,-593.61 -28.46,-7.59 -53.62,-16.56 -89.13,-26.49 -32.64,-9.12 -65.61,-19.63 -95.22,-28.67 -30.29,-9.25 -63.18,-16.3 -90.86,-24.78 -33.11,-10.15 -61.75,-18.87 -96.35,-27.54 -305.55,-76.63 -669.09,-171.45 -977.21,-220.41l-1271.67 -165.46c-18.46,-2.1 -38.91,0.72 -57.22,-0.59l-512.07 -33.05c-52.83,0.22 -72.72,-7.94 -115.3,-8.6 -38.2,-0.57 -77.7,0.25 -116.04,0.42 -51.53,0.25 -63.92,-8.69 -115.44,-8.44 -64.25,0.29 -178.74,7.15 -236.3,-3.22 -100.76,-18.15 -354.77,-4.95 -474.1,-4.95 -87.8,0 -143.47,-8.26 -231.27,-8.26l-603.26 0.33c-42.54,-0.65 -62.48,-8.8 -115.29,-8.59 -165.99,0.63 -309.69,-5.48 -471.12,-7.94 -42.18,-0.64 -56.13,-8.89 -107.01,-8.61l-346.97 -16.45c-32.56,-2.44 -16.99,-5.96 -49.48,-8.33 -18.19,-1.33 -39.69,1.4 -57.89,0.07l-112.28 -11.61c-28.32,-5.02 -79.82,-9.98 -103.08,-12.54 -145.78,-16.12 -291.46,-27.78 -434.98,-52.33 -27.37,-4.67 -75.28,-13.93 -109.49,-15.2 -109.74,8.64 -225.23,24.41 -337.54,35.56 -711.1,70.6 -1665.55,64.23 -2313.42,-159.2 -811.96,-280.02 -1114.75,-717.03 -950.72,-1527.96l67.27 -296.82 -144.42 178.29c-91.76,135.74 -131.49,191.41 -211.33,350.31 -48.42,96.36 -87.76,206.9 -122.95,314.8 -34.09,104.52 -60.77,250.52 -74.65,371.35 -11.43,99.48 -10.83,328.13 4.29,415.7 43.84,253.93 25.62,248.4 122.09,538.66 41.55,125.05 138.17,353.64 203.51,465.49l112.64 209.47c58.79,117.8 183.01,322.95 236.94,432.08l198.72 354.66c158.71,261.99 258.08,431.03 424.49,682.26l239.01 314.36c45.85,45.93 100.07,120.56 175.63,161.35z"/>
   <path class="fil1" d="M3085.95 9692.05c51.38,99.5 135.42,172.81 212.69,250.17 59.33,59.39 191.87,164.75 252.09,210.42l622.09 426.86c152.63,101.56 498.19,306.77 650.4,390.28l294.4 168.12c28.38,14.41 48.61,25.87 74.6,41.03l685.39 363.55c51.87,25.92 100.12,49.72 154.13,77.14l1360.66 497.7c490.81,191.55 877.6,272.98 1394.34,348.39 47.86,6.98 56.01,1.79 100.41,15.21 376.7,113.96 545.31,156.04 954.02,210.56 62.67,8.36 134.97,17.51 202.45,28.81 71.74,11.99 136.65,10.85 208.14,23.13l1184.37 95.82c35.79,2.71 79.86,-3.54 115.05,0.59l331 15.88c50.3,-0.2 68.91,7.05 107.06,8.58 78.86,3.15 156.72,-4.52 225.1,6.16 64.79,10.1 160.77,-3.45 229.5,1.75 184.94,13.98 278.22,5.16 462.82,7.97 42.18,0.65 56.13,8.9 107.01,8.63l1156.56 8.01c47.05,0.04 56.83,8.79 107.06,8.57 109.49,-0.51 113.41,-6.26 216.85,14.41 92.21,18.44 77.98,15.2 163.19,74.35 35.6,-9.36 73.94,-31.69 117.66,-44.55 42.58,-12.53 90.42,-25.79 137.5,-36.13 282.48,-62.05 652.53,-97.65 942.44,-99.67 564.07,-3.93 1033.79,39.32 1516.1,217.83 47.47,17.57 83.15,36.92 121.33,52.72 42.73,17.66 78.82,34.79 115.93,58.06 197.48,123.85 260.38,150.29 429.41,347 71.68,83.43 177.94,286.98 227.24,384.25 73.87,145.69 173.79,291.52 187.57,505.92l20.64 11.73c42.02,-25.96 132.42,-154.58 158.71,-195.77l43.93 -79.97c6.18,-12.33 8.72,-21.23 14.92,-34.64 66.34,-143.69 84.77,-269.33 103.94,-432.92 34.31,-292.86 -94.59,-769.98 -201.05,-1036.62l-78.02 -186.27c-39.96,-102.61 -100.54,-198.81 -149.93,-296.08 -20.85,-41.06 -39.59,-76 -63.12,-118.6l-787.24 -1343.67c-5.13,-15.57 -0.63,-15.11 -13.27,-28.02l-135.62 -186.71 -223.7 -147.14c-27.28,-17.91 -48.16,-31.02 -75.11,-48.67 -27.58,-18.03 -48.45,-30.15 -74.44,-49.79 -119.12,-89.98 -225.98,-145.32 -363.4,-248.62 -368.29,-276.88 -714.41,-439.16 -1219.47,-482.71 -408.94,-35.25 -568.88,-3.74 -942.72,0.71 -318.64,3.8 -636.14,23.76 -958.29,24.71 -324.84,0.97 -649.71,2.24 -974.61,2.27 -1772.88,0.15 -3562.63,30.74 -5335.55,33.05 -489.85,0.64 -953.72,-11.62 -1445.39,-18.26 -317.43,-4.3 -640.82,-14.77 -958.08,-14.53 -193.7,0.15 -1597.19,-104.14 -1695.87,145.13 -8.34,21.09 -1.1,24.21 -13.82,43.87z"/>
   <path class="fil2" d="M3085.95 9692.05c12.72,-19.66 5.48,-22.78 13.82,-43.87 98.68,-249.27 1502.17,-144.98 1695.87,-145.13 317.26,-0.24 640.65,10.23 958.08,14.53 491.67,6.64 955.54,18.9 1445.39,18.26 1772.92,-2.31 3562.67,-32.9 5335.55,-33.05 324.9,-0.03 649.77,-1.3 974.61,-2.27 322.15,-0.95 639.65,-20.91 958.29,-24.71 373.84,-4.45 533.78,-35.96 942.72,-0.71 505.06,43.55 851.18,205.83 1219.47,482.71 137.42,103.3 244.28,158.64 363.4,248.62 25.99,19.64 46.86,31.76 74.44,49.79 26.95,17.65 47.83,30.76 75.11,48.67l223.7 147.14c-6.58,-27.85 -12.91,-29.53 -24.63,-49.5l-234.73 -401.24c-11.86,-19.44 -21.94,-29.96 -32.69,-49.89l-49.38 -107.55c-19.08,-38.15 -33.09,-66.52 -52.17,-104.76l-82.6 -156.93c-103.36,-207.14 -256.22,-459.51 -381.25,-651.16 -12.53,-19.21 -17.77,-31.2 -31.21,-51.39l-158.64 -237.81c-86.73,-130.15 -197.45,-287.67 -301.15,-409.15l-74.31 -90.88c-15.91,-18.84 -24.14,-22.82 -39.16,-43.44 -13.46,-18.49 -18.22,-22.09 -35.21,-39.11l-148.47 -165.4c-15.76,-15.66 -25.63,-25.53 -41.29,-41.29l-263.67 -223.63c-92.91,-70.28 -201.49,-119.19 -307.11,-171.95 -38.02,-19 -62.16,-38.62 -98.98,-57.95 -49.5,-25.98 -52.76,-31.19 -90,-66.92 -72.8,-69.84 -203.11,-154.55 -294.39,-184.64 -187.99,-61.99 -329.37,-91.12 -529.49,-106.49 -325.27,-24.99 -316.6,-107.19 -850.9,-107.19 -78.21,0 -243.38,-8.78 -310.54,3.32l-837.84 37.65c-40.47,0.62 -37.19,7.42 -73.7,8.89l-223.93 7.33c-75.92,8.91 -536.23,4.37 -636.19,-7.23 -36.71,-4.27 -43.93,5.65 -73.46,7.9 -153.57,11.65 -323.7,-2.74 -479.4,-0.37l-545.1 8.28c-36.52,1.46 -33.24,8.27 -73.71,8.89 -155.73,2.37 -325.77,-11.97 -479.4,-0.37l-462.49 8.31c-64.4,-0.03 -101.57,8.6 -156.83,8.35 -104.62,-0.48 -209.32,-0.1 -313.95,-0.1 -114.72,0 -199.13,8.26 -313.85,8.26 -684.08,0 -1356.16,28.39 -2040.11,24.74 -59.59,-0.31 -91.58,8.36 -156.89,8.3 -107.37,-0.1 -214.75,0 -322.11,0 -113.02,0 -196.31,8.26 -305.6,8.26 -107.37,0 -214.75,0.1 -322.12,0 -62.38,-0.06 -94.21,8.61 -148.57,8.36 -47.76,-0.23 -111.06,-3.61 -157.07,-0.14 -30.88,2.34 -26.98,8.03 -65.71,8.62l-165.82 -0.63c-36.51,1.46 -33.22,8.27 -73.7,8.9 -52.2,0.79 -105.38,-1.45 -157.57,-0.66l-148.35 8.59c-111.75,-0.01 -197.92,8.69 -313.95,8.16l-999.6 32.83c-36.51,1.46 -33.22,8.27 -73.7,8.88 -54.28,0.83 -112.05,-2.78 -165.81,-0.62l-454 16.79c-111.04,-0.6 -324.24,16.85 -462.49,16.54l-312.06 10.06c-45.98,7.18 -92.85,6.49 -150.46,6.47 -64.4,-0.02 -101.57,8.61 -156.83,8.36 -116.04,-0.54 -202.2,8.15 -313.95,8.15 0.96,43.46 25.59,75.93 41.29,107.38l112.33 185c102.7,154.07 212.2,278.09 320.48,422.87l102.02 120.97c17.41,18.48 16.81,23.64 32.89,41.45l70.26 78.42c28.27,27.75 41.09,49.43 70.35,78.32l210.33 235.66c25.5,26.77 48.08,47.78 74.51,74.16 13.1,13.09 25.64,23.54 37.11,37.23l107.46 115.54c110.63,110.62 219.12,230.31 338.54,330.46 41.28,34.62 70.3,75.76 114.46,108.55l158.1 139.23c16.03,13.53 20.02,22.1 38.5,35.85l81.56 67.1c47.96,39.99 134.43,87.08 172.23,125.12l74.79 73.88c15.69,12.31 22.57,23.76 38.26,36.07 29.87,23.44 49.5,53.14 92.37,55.96z"/>
   <path class="fil3" d="M17969.32 10120.22c9.16,43.06 15.78,80.99 26.43,123.9 28.56,115.03 81.21,231.16 123.38,339.15 47.82,122.45 116.97,234.37 177.91,350.68 12.05,22.99 16.04,32.66 29.07,53.53l492.58 738.06c53.48,71.12 107.09,147.84 168.44,211.5 62.64,64.97 112.75,137.72 177.75,202.16l74.32 82.63c54.58,53.94 102.85,102.49 156.95,156.9l115.5 107.5c19.23,17.29 25.71,17.19 45.61,36.99 19.4,19.32 20.97,18.09 40.67,33.66 180.74,142.78 293.73,226.49 513.34,337.38 67.62,34.14 144.41,61.51 219.18,86.41 76.9,25.62 147.99,48.07 235.62,69.97 169.84,42.46 340.11,73.15 519.04,100.42 91.31,13.91 185.98,20.24 272.36,33.23 84.25,12.67 203.1,9 282.33,23.28 87.97,15.83 203.05,1.59 293.41,12.18 87.87,10.31 210.69,-3.72 301.27,12.59 87.37,15.73 487.73,2.86 607.89,3.33 59.99,0.22 82.66,-8.62 140.36,-8.31 52.29,0.27 104.66,0.04 156.97,0.04 109.36,0 192.52,-8.37 305.59,-8.27 59.24,0.06 91.26,-8.41 140.19,-8.47 44.93,-0.06 114.56,4.51 156.53,-0.4 46.64,-5.47 82.62,-7.67 141.03,-7.64 131.18,0.05 294.71,-16.85 446,-16.52 62.83,0.14 89.99,-8.61 148.63,-8.3l454.34 -8.18c57.69,0.3 80.36,-8.55 140.36,-8.31 453.36,1.75 909.25,-24.78 1362.81,-24.77l607.88 -11.57c180.25,-32.46 425.22,23.74 602.94,-8.26 96.96,-17.47 486.95,-4.95 614.5,-4.95 110.3,0 191.63,-8.25 297.34,-8.25l2461.29 0c93.69,0 215.43,-6.86 305.63,-0.04l363.34 0c139.37,-10.54 681.38,2.94 851.08,0.36l371.38 -8.55c31.13,-2.35 32.72,-8.46 74.07,-8.51 52.37,-0.06 104.88,0.08 157.25,0.31l720.27 -39.6c23.84,-3.71 48.62,-1.16 72.86,-1.47l288.64 -25.21c41.45,-0.67 42.92,-5.53 74.45,-8.15 0,-70.98 -39.98,-133.84 -75.86,-188.44 -44.67,-67.97 -88.16,-136.3 -140.88,-197.75 -13.65,-15.89 -15.41,-21.13 -29.04,-37.04 -22.22,-25.91 -37.31,-47.17 -58.3,-73.85 -48.86,-62.11 -110.97,-116.02 -159.97,-178.67l-92.64 -105.57c-17.86,-24.06 -43.3,-45.96 -64.81,-67.34l-66.01 -74.41c-47.53,-47.22 -88.92,-88.88 -136.45,-136.11l-132.1 -140.46c-26.69,-26.44 -36.49,-45.3 -61.82,-70.33 -94.25,-93.05 -213.42,-244.75 -322.33,-354.93l-410.72 -398.71 -201.47 -137.16c-44.9,-26.15 -97.55,-50.13 -153.74,-51.63 -311.34,-4.2 -620.17,-16.82 -933.31,-16.66 -2179.31,1.12 -4365.02,64.61 -6541.42,65.75 -628.03,0.32 -1255.74,2.4 -1883.13,-6.66 -611.3,-8.8 -1235.01,-11.6 -1841.92,-48.51 -702.59,-42.73 -1431.81,-41.33 -2077.69,-287.34 -296.8,-113.04 -366.39,-111.69 -627.33,-314.93 -110.76,-86.27 -183.59,-224.67 -235.24,-235.83 -49.41,35.81 -45.79,120.61 -82.6,164.15z"/>
   <path class="fil4" d="M14657.33 12994.14c-105.69,228.31 -217.74,526.57 -313.84,761.88 -172.72,422.93 -382.73,1109.6 -438.04,1568.99l-32.74 305.89c-2.23,31.4 -7.16,21.44 -8.59,57.48 -5.94,149.48 -14.19,389.54 -8.27,537.47 1.45,35.88 6.24,26.07 8.61,57.47l76.32 667.02c24.82,146.51 63.29,295.28 98.74,438.12 52.29,210.75 123.64,407.14 184.97,624.44 64.5,228.49 113.12,394.09 190.08,619.34l74.67 189.63c99.09,199.59 91.82,221.43 243.76,425.26 23.69,31.77 43.85,46.99 64.73,75.67 43.4,59.63 193.42,167.24 266.82,203.96 44.93,22.47 210.5,87.35 256.22,71.75 234.19,-79.9 487.01,-359.74 638.21,-568.1 10.69,-14.72 16.76,-26.23 26.69,-39.39 72.8,-96.51 124.16,-190.53 186.49,-292.55 85.57,-140.05 156.84,-305.86 225.1,-452.17 37.08,-79.47 11.66,-41.07 63.43,-134.79l288.97 -512.19c11.7,-22.27 15.9,-24.47 27.59,-46.74 45.37,-86.27 108.29,-171.25 154.11,-250.61l152.58 -252.13c17.99,-29.09 31.52,-53.46 49.55,-82.59l297.32 -512.1c10.84,-17.27 13.31,-23.64 23.63,-42.44l503.84 -916.78c16.12,-32.22 28.87,-58.5 43.96,-88.19l470.91 -1016.44 -20.64 -11.73c-13.78,-214.4 -113.7,-360.23 -187.57,-505.92 -49.3,-97.27 -155.56,-300.82 -227.24,-384.25 -169.03,-196.71 -231.93,-223.15 -429.41,-347 -37.11,-23.27 -73.2,-40.4 -115.93,-58.06 -38.18,-15.8 -73.86,-35.15 -121.33,-52.72 -482.31,-178.51 -952.03,-221.76 -1516.1,-217.83 -289.91,2.02 -659.96,37.62 -942.44,99.67 -47.08,10.34 -94.92,23.6 -137.5,36.13 -43.72,12.86 -82.06,35.19 -117.66,44.55z"/>
   <path class="fil5" d="M16805.35 5331.44l-67.27 296.82c-164.03,810.93 138.76,1247.94 950.72,1527.96 647.87,223.43 1602.32,229.8 2313.42,159.2 112.31,-11.15 227.8,-26.92 337.54,-35.56l244.47 -522.87c26.17,-64.32 49.42,-116.86 75.13,-180.9 144.31,-359.48 285.81,-789.06 363.93,-1180.58 55.61,-278.74 76.96,-439.63 108.76,-717.18l8.84 -189.38c3.93,-52.12 8.4,-14.86 8.3,-115.59l0 -396.45c0,-198.58 -32.26,-502.49 -65.16,-702.97l-80.11 -431.98c-44.64,-192.79 -105.22,-423.7 -167.52,-608.85 -98.1,-291.57 -262.88,-721.9 -402.98,-1001.11 -17.47,-34.8 -30.38,-51.91 -46.95,-85.21 -81.69,-164.17 -199.86,-321.37 -353.83,-422.55 -41.22,-27.1 -125.2,-65.66 -188.11,-67.91 -149,-5.33 -231.38,27.72 -347.08,99.56 -16.51,10.24 -18.63,14.95 -38.02,28.06 -113,76.39 -294.81,277.8 -375.19,392.93l-487.07 801.4 -440.6 847.85c-14.86,28.29 -32.21,52.15 -46.68,77.2l-527.11 885.25c-109.5,176.9 -496.12,869.44 -549.41,995.1l-194.54 449.69c-10.55,31.93 -21.37,70.47 -33.48,98.07z"/>
   <path class="fil6" d="M29020.36 14243.3c17.1,23.33 14.38,16.09 46.07,28.26 180.63,69.3 161,44.51 277.5,193.29 18.94,24.21 12.33,24.33 39.85,42.74l-92.48 460.91c-17.48,69.22 -37.13,148.86 -54.48,218.07 -9.8,39.07 -18.16,69.69 -29.81,110.62l-156.68 537.09c-95.06,282.65 -161.22,575.38 -256.08,858.94 -64.19,191.9 -172.32,611.13 -363.61,751.4 -30.02,22.02 -55.88,32.85 -90.34,50.08 -83.65,41.82 -193.45,99.27 -244.99,176.23 384.42,0 751.9,-16.52 1139.8,-16.52 -9.35,-34.98 -9.71,-20.76 -34.51,-39.82 -92.3,-70.93 -119.02,-88.93 -224.53,-147.15 -69.94,-38.6 -54.82,-128.6 -54.82,-201.22 0,-26.68 -1.36,-56.69 -0.31,-82.9 6.69,-166.89 63.99,-316.66 106.08,-472.08 24.2,-89.39 47.47,-168.77 72.6,-257.78 44.64,-158.18 294.37,-1082.45 330.79,-1155.88l49.78 -98.89c12.41,-19.54 1.48,-2.93 10.95,-13.83 35.6,152.8 75.05,432.78 103.94,598.11 64.5,369.04 134.99,841.45 207.86,1204.5 20.35,101.37 36.13,200.74 52.53,302.62 16.01,99.48 48.65,200 48.65,306.51 35.82,-2.99 59.35,-30.48 84.78,-55.62l226.96 -260.34c17.01,-18.78 18.45,-21.3 33.7,-40.65l123.34 -157.48c139.17,-161.75 289.55,-394.34 421.87,-569.24l926.41 -1344.92c36.73,-55.1 72.34,-123.66 115.63,-173.45 -11.76,141.25 -39.81,273.74 -70.92,408.12l-360.22 1316.44c-128.37,514.26 -151.97,634.13 -584.89,852.23l-156.81 90.98c71.58,0 143.18,-0.15 214.75,0 74.49,0.17 125.76,-8.26 206.48,-8.26l322.34 0.22c47.04,-0.06 56.81,-8.81 107.05,-8.57 295.14,1.35 564.73,-8.17 859.07,-8.17 -12.3,-33.99 -78.58,-49.51 -107.23,-66.21 -260.68,-151.82 -250.31,-313.56 -183.55,-579.72 42.63,-170.03 99.84,-339.83 155.51,-505.25 12.12,-36.05 22.67,-62.8 32.85,-99.29l122 -406.6c21.37,-72.3 36.25,-134.33 57.82,-206.48l167.33 -633.83c11.13,-37.23 18.82,-68.11 27.83,-104.31 9.37,-37.62 18.36,-64.25 28.1,-104.05 99.81,-407.58 180.96,-440.32 475.83,-647.45 34.02,-23.89 93.36,-57.86 115.53,-90.96 -402.14,0 -778.18,8.25 -1181.09,8.25 -5.78,24.81 -6.24,21.12 -18.09,39.74l-104.17 184.92c-104.79,169.31 -209.81,340.23 -323.64,502.28l-642.92 893.32c-19.17,25.53 -34.55,44.11 -52.59,71.3l-394.83 555c-14.16,-60.74 -46.39,-116.64 -65.14,-174.39 -90.27,-278.02 -118.24,-584.42 -150.27,-873.9l-40.32 -513.05c-1.35,-104.67 -25.59,-231.43 -25.3,-338.11 0.31,-115.96 -24.47,-214.72 -24.32,-330.83 0.08,-56.72 -8.81,-57.81 -71.23,-46.04 -43.15,8.15 -76.56,0.7 -118.37,5.61 -40.6,4.76 -64.76,6.55 -116.57,7.32 -42.48,0.63 -55.86,9.12 -107.05,8.58l-347.51 24.16c-73.62,8.63 -156.42,0.86 -230.03,9.5 -67.28,7.89 -157.52,15.9 -231.88,15.9z"/>
   <path class="fil7" d="M6893.52 6091.31c-9.1,-34.07 -100.16,-92.99 -178.66,-358.21 -91.77,-310.05 -87.74,-766.7 -31.32,-1090.68 70.07,-402.44 147.68,-681.06 325.61,-1037.18l57.67 -107.52c101.22,-174.75 103.85,-165.7 206.61,-305.46l109.52 -121.74c83.03,-69.44 163.94,-142.36 262.04,-192.24 170.21,-86.54 352.8,-122.58 548.86,-86.08 57.04,10.63 64.9,6.17 84.1,56.32 56.58,147.79 90.91,313.62 102.31,475.84 2.22,31.46 7.07,21.67 8.51,57.57 0.95,24.12 -1.57,50.83 -0.62,74.94 1.47,36.53 7.41,28.93 8.87,65.47l-18.61 427.99c-31.15,203.03 -37.77,325.37 -90.72,537.01 -15.11,60.41 -30.14,134.94 -50.97,196.8 -73.17,217.3 -95.37,315.79 -208.88,542.72 -113.25,226.4 -289.92,490.59 -485.13,638.16 -194.07,146.71 -376.61,226.29 -649.19,226.29zm-1139.8 -1115.02c0,409.42 152.98,834.63 502.14,1067.14 17.16,11.43 26.21,18.44 45.7,28.64 73.19,38.26 61.55,39.99 159.88,79.63 384.78,155.11 936.16,105.51 1302.75,-40.44 52.48,-20.88 109.43,-43.99 153.35,-69.65 46.55,-27.19 93.35,-55.21 140.3,-82.69 24.51,-14.34 38.03,-27.66 62.91,-44.48 26.62,-18 42.32,-29.52 67.22,-48.4 22.71,-17.22 39.56,-32.14 60.09,-47.28l63.93 -51.71c35.81,-30.03 27.8,-33.21 86.25,-78.93 82.81,-64.78 330.48,-370.7 383.38,-450.83 18.28,-27.69 30.16,-41.2 48.07,-67.55 16.77,-24.65 24.15,-41.04 41.11,-66.26 107.46,-159.86 197.76,-346.7 268.09,-524.81 60.99,-154.43 126.14,-363.11 141.29,-527.71 18.12,-196.73 20.18,-404.68 -39.83,-595.57 -19.9,-63.32 -61.39,-179.57 -95.34,-235.03 -53.46,-87.32 -114.64,-183.78 -188.69,-257.31 -224.12,-222.6 -540.37,-348.94 -889.98,-348.94 -421.98,0 -949.67,221.96 -1277.95,473.02l-239.72 198.04c-26.74,26.81 -47.56,47.56 -74.34,74.33 -114.08,114.08 -111.88,117.7 -202.55,226.93l-121.6 167.47c-177.02,265.43 -333.62,631.22 -371.95,949.56 -10.61,88.19 -24.51,182.4 -24.51,272.83z"/>
   <path class="fil8" d="M9916.44 3522.64c64.5,-15.02 123.95,-69.33 181.71,-99.11 124.2,-64.04 238.15,-151.28 363.28,-214.87 202.67,-103.01 419.45,-193.17 652.91,-214.33 38.16,-3.46 88.17,-6.56 126.92,-13.49l275.71 -9.78c44.05,6.88 86.61,6.46 142.2,6.46l-69.27 104.19c-14.18,19.08 -25.01,30.13 -40.37,50.48l-78.87 102.84c-7.76,9.75 -11.71,12.09 -19.42,21.86 -10.85,13.76 -7.45,13.13 -21.23,28.34l-99.71 123.29c-9.04,11.43 -14.77,14.43 -24.12,25.44 -12.07,14.22 -7.04,11.3 -17.17,24.12l-106.72 124.54c-90.44,106.58 -388.21,470.41 -454.31,536.82 -76.52,76.89 -137.77,163.14 -210.77,243.49l-371.67 437.75c-11.85,13.04 -8.58,11.46 -17.66,23.63l-147.38 174.74c-125.12,132.87 -284.35,349.93 -404.98,495.29 -138.67,167.11 -264.43,342.7 -385.9,522.63 -36.27,53.73 -75.41,115.41 -90.85,181.71 55.05,0 110.14,0.2 165.2,-0.02 64.28,-0.24 97.33,8.34 165.17,8.27 679.73,-0.65 1360.33,16.6 2040.07,16.53l165.08 8.35c57.85,-0.26 115.7,-0.1 173.55,-0.1 11.37,-48.81 133.76,-319.41 165.21,-396.42 61.05,-149.49 148.64,-416.34 148.64,-578.19 -170.08,90.01 -313.74,219.7 -467.35,333.82 -28.01,20.81 -48.17,35.74 -75.49,56.65 -328.94,251.85 -730.2,379.92 -1152.34,313.6 -35.05,-5.51 -53.67,-6.75 -87.93,-11.18 -26.22,-3.39 -55.31,-13.26 -83.5,-15.62 32.71,-48.85 85.9,-93.71 126.06,-138.23l286.91 -332.55c15.53,-21.31 27.36,-28.34 42.81,-48.03l388.84 -461.88c9.34,-11.01 15.09,-14.01 24.12,-25.43l1321.34 -1643.77c66.22,-87.95 343.34,-455.82 345.55,-554.74l-1965.73 0c-232.37,0 -436.94,-8.25 -669.02,-8.25 -38.09,163.52 -231.73,707.65 -239.52,801.15z"/>
   <path class="fil9" d="M22346.79 15209.64c-58.16,15.53 -307.8,318.81 -451.4,391.06 -177.57,89.32 -472.58,104.5 -737.95,104.5 3.82,-45.92 28.9,-118.23 39.75,-158.47 15.28,-56.57 29.22,-110.28 42.96,-163.52 28.28,-109.53 52.79,-217.9 85.54,-327.44 33.17,-110.9 51.55,-217.31 84.73,-328.24l85.66 -327.31c171.78,0 319.79,8.97 495.66,8.16l230.48 17.3c62.37,6.55 151.66,33.51 198.98,57.07 167.75,83.5 321.59,341.42 437.61,503.96 16.17,22.66 17.19,12.57 24.84,41.22 35.4,-25.94 80.4,-253.44 94.2,-302.25 15.03,-53.24 144.49,-502.91 145.32,-540.2 -108.27,0 -146.09,-4.36 -248.4,7.64l-1155.69 0.62c-242.72,0 -458.49,8.25 -702.05,8.25 -236.76,0 -473.53,0 -710.31,0l245.61 225.18c18.09,16.28 74.47,67.22 93.03,72.16 0,111.05 -52.68,348.37 -73.74,454.86l-352.69 1241.37c-63.59,215.03 -108.31,416.37 -161.64,631.27 -17.23,69.47 -38.26,133.39 -61.31,202.98 -31.92,96.39 -75.08,183.94 -130.3,266.16 -70.66,105.23 -149.38,202.23 -230.1,298.49 -22.66,27.02 -54.2,40 -63.94,76.47 472.37,0 921,-8.26 1395.84,-8.26 240.14,0 453.08,-8.26 693.78,-8.26 236.77,0 473.54,0 710.31,0 28.96,-54.72 296.55,-898.03 297.33,-933.31 -152.14,80.51 -469.1,325.61 -655.78,450.97 -55.69,37.41 -114.13,69.47 -170.28,102.28 -57.83,33.77 -131.28,61.27 -194.77,86.04 -63.48,24.77 -139.89,50.6 -210.64,61.93 -165.22,26.49 -340.33,25.82 -506.43,-12.25 -83.57,-19.16 -131.28,-27.13 -150.44,-130.38 -18.57,-100.1 -12.4,-103.08 -3.67,-179.28l9.5 -130.91 296.72 -1033.03c271.35,0 427.32,-2.58 611.32,90.72 20.91,10.6 31.11,18.23 51.11,31.48 78.47,52 160.87,145.84 216.52,221.23 22.07,29.9 54.69,85.58 87.39,94.31 1.05,-47.09 23.68,-102.8 34.76,-146.96l114.04 -431.07c21,-81.36 147.62,-545.03 148.54,-586.54z"/>
   <path class="fil9" d="M23800.44 14201.99c18.99,28.37 69.97,60.92 99.17,82.54 238.57,176.66 258.48,315.05 188.29,593.11 -17.12,67.77 -36.02,139.02 -57.37,206.94l-122.71 405.88c-18.16,69.12 -40.91,130.77 -61.14,203.17 -83.3,298.09 -227.29,743.01 -285.16,1036.33l-109.01 419.6c-55.82,167.96 -148.94,283.27 -299.02,361.73 -64.11,33.51 -213.89,121.83 -269.84,134.87 9.68,13.92 1.18,16.51 24.78,16.51l2758.63 0 297.33 -933.3c-45.45,30.43 -258.41,264.1 -369.53,357.29l-77.98 70.68c-16.82,13.29 -21.67,21.35 -39.72,34.62 -13.17,9.68 -29.13,20.61 -42.82,31.51 -279.24,222.35 -630.53,323.57 -997.93,323.57l-181.7 0c-0.84,-37.35 -8.26,-32.82 -8.26,-74.33 0,-247.15 10.11,-354.34 59.7,-592.79 32.25,-155.1 72.63,-286.55 112.14,-432.97l414.45 -1501.73c18.43,-71.65 40.55,-137.14 61.25,-211.31 26.81,-96.08 70.35,-197.62 128.62,-276.09 42.87,-57.73 250.4,-155.53 338.85,-214.52 13.58,-9.05 24.64,-16.5 39.65,-26.43l42.95 -31.39c-547.53,0 -1099.68,16.51 -1643.62,16.51z"/>
   <path class="fil9" d="M26972.04 14210.26c6.47,17.87 4.4,13.64 17.55,23.74 10.67,8.2 20.56,11.3 31.75,17.79 18.53,10.76 34.22,22.4 54.77,36.11 20.22,13.48 36.11,22.87 54.27,36.58l75.21 56.94c162.42,135.02 131.43,221.27 85.26,436.73 -8.19,38.21 -19.69,70.61 -28.03,104.13l-209.36 732.2c-109.69,348.9 -192.14,715.24 -279.64,1066.62 -80,321.23 -152.76,470.46 -377.9,695.84l-307.64 237.47c129.44,0 231.36,-5.73 366.32,-15.09l987.49 -7.31c49.12,-8.82 111.51,-0.31 164.37,-0.31 -6.66,-24.96 -108.3,-164.02 -147.12,-167.25 -6.23,-74.95 -41.29,-151.86 -41.29,-231.27 0,-161.59 56.31,-308.14 90.85,-437.74 69.05,-259.21 168.89,-552.57 239.52,-817.68l110.78 -426.07c17.68,-76.66 32.63,-140.91 48.04,-216.26 31.13,-152.22 114.89,-458.72 188.01,-604.89 56.78,-113.52 103.88,-185.76 188.16,-274.37 16.16,-17 15.76,-24.08 28.87,-37.2 45.08,-45.08 170.27,-137.75 226.33,-170.12 33.97,-19.63 71.97,-36.91 85.3,-55.11l-1032.44 8.25c-69.68,-0.27 -120.62,8.27 -198.2,8.27 -140.42,0 -280.82,0 -421.23,0z"/>
   <polygon class="fil5" points="22346.79,15209.64 22355.05,15209.64 22348.17,15200 "/>
  </g>
 </g>
</svg>
